<?xml version="1.0" encoding="utf-8"?>
<!-- Generator: Adobe Illustrator 25.0.0, SVG Export Plug-In . SVG Version: 6.00 Build 0)  -->
<svg version="1.1" id="Слой_1" xmlns="http://www.w3.org/2000/svg" xmlns:xlink="http://www.w3.org/1999/xlink" x="0px" y="0px"
	 viewBox="0 0 16.3 16.9" style="enable-background:new 0 0 16.3 16.9;" xml:space="preserve">
<style type="text/css">
	.st0{fill:none;stroke:#000000;stroke-width:2;stroke-linecap:round;stroke-linejoin:round;}
</style>
<g id="Money-Payments-Finance_Money_money-wallet-open" transform="translate(-541.25 -289.875)">
	<g id="Group_28" transform="translate(542.251 290.875)">
		<g id="money-wallet-open">
			<path id="Shape_182" class="st0" d="M0.5,0.7l8,2.3c1.1,0.4,1.9,1.4,1.9,2.6v7.7c0.1,0.8-0.5,1.6-1.4,1.6c-0.2,0-0.4,0-0.5,0
				L1.9,13C0.8,12.7,0,11.6,0,10.5V2.1C0,0.9,0.8,0,2,0h10.2c1.2,0,2.2,1,2.2,2.2v0v6.6c0,1.2-1,2.2-2.3,2.2c0,0,0,0,0,0h-1.6"/>
			<path id="Shape_183" class="st0" d="M7.4,8.3c0.2,0,0.3,0.1,0.3,0.3S7.6,8.8,7.4,8.8c-0.2,0-0.3-0.1-0.3-0.3
				C7.2,8.4,7.3,8.3,7.4,8.3"/>
			<path id="Shape_184" class="st0" d="M14.3,5.5h-3.9"/>
		</g>
	</g>
</g>
</svg>
