<?xml version="1.0" encoding="utf-8"?>
<!-- Generator: Adobe Illustrator 25.0.0, SVG Export Plug-In . SVG Version: 6.00 Build 0)  -->
<svg version="1.1" id="Слой_1" xmlns="http://www.w3.org/2000/svg" xmlns:xlink="http://www.w3.org/1999/xlink" x="0px" y="0px"
	 viewBox="0 0 18.8 18.7" style="enable-background:new 0 0 18.8 18.7;" xml:space="preserve">
<style type="text/css">
	.st0{fill:none;stroke:#FBC457;stroke-width:2;stroke-linecap:round;stroke-linejoin:round;}
</style>
<g id="Сгруппировать_591" transform="translate(-534.75 -345.854)">
	<path id="Rectangle-path_17" class="st0" d="M538.3,360.4c0-0.4,0.3-0.6,0.6-0.6l0,0h8.9c0.4,0,0.6,0.3,0.6,0.6l0,0v2.5
		c0,0.4-0.3,0.6-0.6,0.6l0,0h-8.9c-0.4,0-0.6-0.3-0.6-0.6l0,0V360.4z"/>
	<path id="Rectangle-path_18" class="st0" d="M539.6,356.6c0-0.4,0.3-0.6,0.6-0.6l0,0h8.9c0.4,0,0.6,0.3,0.6,0.6l0,0v2.5
		c0,0.4-0.3,0.6-0.6,0.6l0,0h-8.9c-0.4,0-0.6-0.3-0.6-0.6l0,0V356.6z"/>
	<path id="Rectangle-path_19" class="st0" d="M535.8,352.8c0-0.4,0.3-0.6,0.6-0.6l0,0h8.9c0.4,0,0.6,0.3,0.6,0.6l0,0v2.5
		c0,0.4-0.3,0.6-0.6,0.6l0,0h-8.9c-0.4,0-0.6-0.3-0.6-0.6l0,0V352.8z"/>
	<path id="Shape_127" class="st0" d="M550.6,346.9v3.9"/>
	<path id="Shape_128" class="st0" d="M548.7,348.8h3.9"/>
</g>
</svg>
