<?xml version="1.0" encoding="utf-8"?>
<!-- Generator: Adobe Illustrator 25.0.0, SVG Export Plug-In . SVG Version: 6.00 Build 0)  -->
<svg version="1.1" id="Слой_1" xmlns="http://www.w3.org/2000/svg" xmlns:xlink="http://www.w3.org/1999/xlink" x="0px" y="0px"
	 viewBox="0 0 21.7 21.7" style="enable-background:new 0 0 21.7 21.7;" xml:space="preserve">
<style type="text/css">
	.st0{fill:none;stroke:#000000;stroke-width:2;stroke-linecap:round;stroke-linejoin:round;}
</style>
<g id="Interface-Essential_Search_search-square" transform="translate(-446.755 -3438.75)">
	<g id="Group_341" transform="translate(447.755 3439.75)">
		<g id="search-square">
			<path id="Rectangle-path_96" class="st0" d="M0,1.3C0,0.6,0.6,0,1.3,0h17.1c0.7,0,1.3,0.6,1.3,1.3v17.1c0,0.7-0.6,1.3-1.3,1.3
				H1.3c-0.7,0-1.3-0.6-1.3-1.3V1.3z"/>
			<path id="Oval_209" class="st0" d="M9.1,12.9c2.1,0,3.8-1.7,3.8-3.8s-1.7-3.8-3.8-3.8S5.3,7,5.3,9.1l0,0
				C5.3,11.2,7,12.9,9.1,12.9z"/>
			<path id="Shape_1556" class="st0" d="M11.8,11.8l2.7,2.7"/>
		</g>
	</g>
</g>
</svg>
